<?xml version="1.0" encoding="UTF-8" standalone="no"?>
<svg width="3200" height="2200" viewBox="0 0 3200 2200" xmlns="http://www.w3.org/2000/svg">
  <style>
    .title { font: bold 38px sans-serif; fill: #222; }
    .area { font: bold 28px sans-serif; fill: #1a5276; }
    .func { font: 20px monospace; fill: #212f3c; }
    .args { font: italic 16px monospace; fill: #566573; }
    .box { fill: #eaf2f8; stroke: #2980b9; stroke-width: 2; rx: 14; }
    .groupbox { fill: #aed6f1; stroke: #2980b9; stroke-width: 2; rx: 24; }
    .arrow { stroke: #b9770e; stroke-width: 2.5; marker-end: url(#arrowhead); }
  </style>
  <defs>
    <marker id="arrowhead" markerWidth="13" markerHeight="9" refX="13" refY="4.5" orient="auto" markerUnits="strokeWidth">
      <polygon points="0 0, 13 4.5, 0 9" fill="#b9770e" />
    </marker>
  </defs>
  <text x="1600" y="60" text-anchor="middle" class="title">Mapa Completo de Funciones (con argumentos y relaciones)</text>

  <!-- Habitación y Muebles -->
  <rect x="60" y="110" width="880" height="950" class="groupbox"/>
  <text x="500" y="150" text-anchor="middle" class="area">Habitación Personal y Muebles</text>

  <!-- Funciones principales de muebles -->
  <rect x="100" y="180" width="320" height="60" class="box"/>
  <text x="260" y="210" text-anchor="middle" class="func">createPersonalRoom()</text>

  <rect x="100" y="260" width="320" height="60" class="box"/>
  <text x="260" y="290" text-anchor="middle" class="func">createRoomFurniture(roomWidth, roomHeight, roomDepth)</text>

  <rect x="100" y="340" width="320" height="60" class="box"/>
  <text x="260" y="370" text-anchor="middle" class="func">addFurnitureFromPanel(furnitureData)</text>

  <rect x="100" y="420" width="320" height="60" class="box"/>
  <text x="260" y="450" text-anchor="middle" class="func">loadFurnitureFBX(furnitureData, position, rotation)</text>

  <rect x="100" y="500" width="320" height="60" class="box"/>
  <text x="260" y="530" text-anchor="middle" class="func">saveFurniturePositions()</text>

  <rect x="100" y="580" width="320" height="60" class="box"/>
  <text x="260" y="610" text-anchor="middle" class="func">saveFurniturePositionsSilently()</text>

  <rect x="100" y="660" width="320" height="60" class="box"/>
  <text x="260" y="690" text-anchor="middle" class="func">loadFurniturePositions()</text>

  <rect x="100" y="740" width="320" height="60" class="box"/>
  <text x="260" y="770" text-anchor="middle" class="func">updateFurnitureList()</text>

  <rect x="100" y="820" width="320" height="60" class="box"/>
  <text x="260" y="850" text-anchor="middle" class="func">selectFurniture(furnitureId)</text>

  <rect x="100" y="900" width="320" height="60" class="box"/>
  <text x="260" y="930" text-anchor="middle" class="func">deselectFurniture()</text>

  <rect x="100" y="980" width="320" height="60" class="box"/>
  <text x="260" y="1010" text-anchor="middle" class="func">moveSelectedFurniture(direction)</text>

  <rect x="100" y="1060" width="320" height="60" class="box"/>
  <text x="260" y="1090" text-anchor="middle" class="func">clearAllFurnitureHighlights()</text>

  <rect x="100" y="1140" width="320" height="60" class="box"/>
  <text x="260" y="1170" text-anchor="middle" class="func">updateAvailableFurnitureList()</text>

  <rect x="100" y="1220" width="320" height="60" class="box"/>
  <text x="260" y="1250" text-anchor="middle" class="func">debugAvailableFurniture()</text>

  <!-- Relaciones muebles -->
  <line x1="260" y1="240" x2="260" y2="260" class="arrow"/> <!-- createPersonalRoom -> createRoomFurniture -->
  <line x1="260" y1="320" x2="260" y2="340" class="arrow"/> <!-- createRoomFurniture -> addFurnitureFromPanel -->
  <line x1="260" y1="400" x2="260" y2="420" class="arrow"/> <!-- addFurnitureFromPanel -> loadFurnitureFBX -->
  <line x1="260" y1="480" x2="260" y2="500" class="arrow"/> <!-- loadFurnitureFBX -> saveFurniturePositions -->
  <line x1="260" y1="560" x2="260" y2="580" class="arrow"/> <!-- saveFurniturePositions -> saveFurniturePositionsSilently -->
  <line x1="260" y1="640" x2="260" y2="660" class="arrow"/> <!-- saveFurniturePositionsSilently -> loadFurniturePositions -->
  <line x1="260" y1="720" x2="260" y2="740" class="arrow"/> <!-- loadFurniturePositions -> updateFurnitureList -->
  <line x1="260" y1="800" x2="260" y2="820" class="arrow"/> <!-- updateFurnitureList -> selectFurniture -->
  <line x1="260" y1="880" x2="260" y2="900" class="arrow"/> <!-- selectFurniture -> deselectFurniture -->
  <line x1="260" y1="960" x2="260" y2="980" class="arrow"/> <!-- deselectFurniture -> moveSelectedFurniture -->
  <line x1="260" y1="1040" x2="260" y2="1060" class="arrow"/> <!-- moveSelectedFurniture -> clearAllFurnitureHighlights -->
  <line x1="260" y1="1120" x2="260" y2="1140" class="arrow"/> <!-- clearAllFurnitureHighlights -> updateAvailableFurnitureList -->
  <line x1="260" y1="1200" x2="260" y2="1220" class="arrow"/> <!-- updateAvailableFurnitureList -> debugAvailableFurniture -->

  <!-- Avatares y Movimiento -->
  <rect x="1000" y="110" width="560" height="440" class="groupbox"/>
  <text x="1280" y="150" text-anchor="middle" class="area">Avatares y Movimiento</text>

  <rect x="1040" y="180" width="480" height="60" class="box"/>
  <text x="1280" y="210" text-anchor="middle" class="func">createUserAvatar(alias, position, floor, custom)</text>

  <rect x="1040" y="260" width="480" height="60" class="box"/>
  <text x="1280" y="290" text-anchor="middle" class="func">updateAvatarPositions()</text>

  <rect x="1040" y="340" width="480" height="60" class="box"/>
  <text x="1280" y="370" text-anchor="middle" class="func">updateAvatarPosition(alias, position, floor, rotation, skin)</text>

  <rect x="1040" y="420" width="480" height="60" class="box"/>
  <text x="1280" y="450" text-anchor="middle" class="func">updatePersonalRoomMovement()</text>

  <!-- Relaciones avatares -->
  <line x1="1280" y1="240" x2="1280" y2="260" class="arrow"/>
  <line x1="1280" y1="320" x2="1280" y2="340" class="arrow"/>
  <line x1="1280" y1="400" x2="1280" y2="420" class="arrow"/>

  <!-- Chat y Emojis -->
  <rect x="1000" y="580" width="560" height="200" class="groupbox"/>
  <text x="1280" y="620" text-anchor="middle" class="area">Chat y Emojis</text>

  <rect x="1040" y="660" width="480" height="60" class="box"/>
  <text x="1280" y="690" text-anchor="middle" class="func">addMessageToChat(alias, message, type, timestamp, isPrivate, recipient)</text>

  <rect x="1040" y="740" width="480" height="60" class="box"/>
  <text x="1280" y="770" text-anchor="middle" class="func">createEmojiPanel()</text>

  <!-- Personalización (Skins) -->
  <rect x="1000" y="800" width="560" height="180" class="groupbox"/>
  <text x="1280" y="830" text-anchor="middle" class="area">Personalización</text>

  <rect x="1040" y="860" width="480" height="60" class="box"/>
  <text x="1280" y="890" text-anchor="middle" class="func">updateSkinPreview(idx)</text>

  <rect x="1040" y="940" width="480" height="60" class="box"/>
  <text x="1280" y="970" text-anchor="middle" class="func">updateSelectedSkin()</text>

  <!-- UI y Utilidades -->
  <rect x="1600" y="110" width="1500" height="650" class="groupbox"/>
  <text x="2350" y="150" text-anchor="middle" class="area">UI, Utilidades y Handlers</text>

  <rect x="1640" y="180" width="320" height="60" class="box"/>
  <text x="1800" y="210" text-anchor="middle" class="func">onWindowResize()</text>

  <rect x="1980" y="180" width="320" height="60" class="box"/>
  <text x="2140" y="210" text-anchor="middle" class="func">closeRoomNavigation()</text>

  <rect x="2320" y="180" width="320" height="60" class="box"/>
  <text x="2480" y="210" text-anchor="middle" class="func">debugMobileControls()</text>

  <rect x="2660" y="180" width="320" height="60" class="box"/>
  <text x="2820" y="210" text-anchor="middle" class="func">handleGameClick(event)</text>

  <rect x="1640" y="260" width="320" height="60" class="box"/>
  <text x="1800" y="290" text-anchor="middle" class="func">updatePeriodicSystems(currentTime)</text>

  <rect x="1980" y="260" width="320" height="60" class="box"/>
  <text x="2140" y="290" text-anchor="middle" class="func">createStoreRow(axis, position, count, storeWidth, storeSpacing, initialOffset, yOffset, wallMaterial, startLinkIndex, isCornerPosition)</text>

  <rect x="2320" y="260" width="320" height="60" class="box"/>
  <text x="2480" y="290" text-anchor="middle" class="func">clearAllFurnitureHighlights()</text>

  <!-- Más utilidades y helpers -->
  <rect x="2660" y="260" width="320" height="60" class="box"/>
  <text x="2820" y="290" text-anchor="middle" class="func">debugAvailableFurniture()</text>

  <!-- Relaciones utilidades -->
  <line x1="2480" y1="230" x2="2480" y2="260" class="arrow"/>
  <line x1="2820" y1="230" x2="2820" y2="260" class="arrow"/>

  <!-- Más funciones y handlers auxiliares pueden agregarse aquí -->

</svg>
